<svg width="338" height="136" viewBox="0 0 338 136" fill="none" xmlns="http://www.w3.org/2000/svg">
<g clip-path="url(#clip0_5_307)" filter="url(#filter0_d_5_307)">
<path d="M287.331 69.4099C290.515 70.907 291.666 75.0579 291.666 75.0579C292.14 73.4248 292.818 72.1999 293.63 71.2472C295.595 69.0696 297.695 68.7974 297.695 68.7974C295.459 68.6613 290.853 64.7145 289.431 61.9245C287.738 58.454 289.905 56.8889 289.905 56.8889C287.67 53.2823 283.064 53.4864 283.064 53.4864V55.1196C283.945 55.2557 284.554 55.4599 285.231 56.0723C285.231 56.0723 284.215 56.1404 283.064 56.3445V58.0457C283.809 58.1138 284.622 58.386 285.231 58.9984C285.231 58.9984 283.741 59.1345 283.064 59.4067V63.7618C287.873 63.8979 287.331 69.4099 287.331 69.4099Z" fill="white"/>
<path d="M279.406 127.388C281.303 126.299 282.522 124.189 282.522 122.012C283.2 122.556 284.08 122.896 284.893 122.896C286.993 122.896 288.686 121.195 288.686 119.086C288.686 117.929 288.212 116.84 287.331 116.159C287.331 117.316 286.383 118.201 285.299 118.201C284.148 118.201 283.267 117.248 283.267 116.159V38.1754H301.894C303.046 38.1754 303.926 39.1281 303.926 40.2169C303.926 41.3737 302.978 42.2584 301.894 42.2584C302.639 43.143 303.655 43.6194 304.807 43.6194C306.906 43.6194 308.6 41.9181 308.6 39.8086C308.6 38.924 308.261 38.0393 307.719 37.4269C309.954 37.4269 311.986 36.2701 313.07 34.2966C311.986 32.3913 309.887 31.1664 307.719 31.1664C308.261 30.4859 308.6 29.6013 308.6 28.7847C308.6 26.6752 306.906 24.9739 304.807 24.9739C303.655 24.9739 302.571 25.4503 301.894 26.3349C303.046 26.3349 303.926 27.2876 303.926 28.3764C303.926 29.5332 302.978 30.4179 301.894 30.4179H283.267V11.8405C283.267 10.6837 284.216 9.79904 285.299 9.79904C286.451 9.79904 287.331 10.7517 287.331 11.8405C288.212 11.092 288.686 10.0712 288.686 8.91441C288.686 6.80489 286.993 5.10367 284.893 5.10367C284.012 5.10367 283.132 5.44391 282.522 5.98831C282.522 3.74269 281.371 1.70122 279.406 0.612442C277.51 1.70122 276.291 3.81074 276.291 5.98831C275.613 5.44391 274.733 5.10367 273.92 5.10367C271.82 5.10367 270.127 6.80489 270.127 8.91441C270.127 10.0712 270.601 11.16 271.482 11.8405C271.482 10.6837 272.43 9.79904 273.514 9.79904C274.665 9.79904 275.546 10.7517 275.546 11.8405V30.554H256.919C255.767 30.554 254.887 29.6013 254.887 28.5125C254.887 27.3557 255.835 26.471 256.919 26.471C256.174 25.5864 255.158 25.11 254.006 25.11C251.906 25.11 250.213 26.8113 250.213 28.9208C250.213 29.8054 250.552 30.6901 251.094 31.3025C248.858 31.3025 246.826 32.4593 245.743 34.4327C246.826 36.3381 248.926 37.563 251.094 37.563C250.552 38.2435 250.213 39.1281 250.213 39.9447C250.213 42.0542 251.906 43.7555 254.006 43.7555C255.158 43.7555 256.241 43.2791 256.919 42.3945C255.767 42.3945 254.887 41.4418 254.887 40.353C254.887 39.1962 255.835 38.3115 256.919 38.3115H275.613V116.296C275.613 117.452 274.665 118.337 273.581 118.337C272.43 118.337 271.549 117.384 271.549 116.296C270.669 117.044 270.195 118.065 270.195 119.222C270.195 121.331 271.888 123.032 273.988 123.032C274.868 123.032 275.749 122.692 276.358 122.148C276.291 124.257 277.442 126.299 279.406 127.388Z" fill="black" stroke="black" stroke-width="1.4893" stroke-miterlimit="10"/>
<path d="M313.002 34.3647C311.919 36.2701 309.819 37.4949 307.651 37.4949C308.193 38.1754 308.532 39.0601 308.532 39.8767C308.532 41.9862 306.839 43.6874 304.739 43.6874C303.587 43.6874 302.504 43.2111 301.826 42.3264C302.978 42.3264 303.858 41.3737 303.858 40.285C303.858 39.1281 302.91 38.2435 301.826 38.2435H283.199L279.406 34.4327L313.002 34.3647Z" fill="black"/>
<path d="M313.002 34.3647C311.919 32.4593 309.819 31.2345 307.651 31.2345C308.193 30.554 308.532 29.6693 308.532 28.8527C308.532 26.7432 306.839 25.042 304.739 25.042C303.587 25.042 302.504 25.5183 301.826 26.403C302.978 26.403 303.858 27.3557 303.858 28.4444C303.858 29.6013 302.91 30.4859 301.826 30.4859H283.199L279.406 34.2967L313.002 34.3647Z" fill="white"/>
<path d="M279.406 127.388C277.51 126.299 276.291 124.189 276.291 122.012C275.613 122.556 274.733 122.896 273.92 122.896C271.82 122.896 270.127 121.195 270.127 119.086C270.127 117.929 270.601 116.84 271.482 116.159C271.482 117.316 272.43 118.201 273.514 118.201C274.665 118.201 275.546 117.248 275.546 116.159V38.1754L279.339 34.3647V127.388H279.406Z" fill="black"/>
<path d="M279.406 127.388C281.303 126.299 282.522 124.189 282.522 122.012C283.199 122.556 284.08 122.896 284.893 122.896C286.993 122.896 288.686 121.195 288.686 119.086C288.686 117.929 288.212 116.84 287.331 116.159C287.331 117.316 286.383 118.201 285.299 118.201C284.148 118.201 283.267 117.248 283.267 116.159V38.1754L279.474 34.3647V127.388H279.406Z" fill="white"/>
<path d="M279.406 0.612442C277.51 1.70122 276.291 3.81074 276.291 5.98831C275.613 5.44391 274.733 5.10367 273.92 5.10367C271.82 5.10367 270.127 6.80489 270.127 8.91441C270.127 10.0712 270.601 11.16 271.482 11.8405C271.482 10.6837 272.43 9.79904 273.514 9.79904C274.665 9.79904 275.546 10.7517 275.546 11.8405V30.554L279.339 34.3647V0.612442H279.406Z" fill="white"/>
<path d="M279.406 0.612442C281.303 1.70122 282.522 3.81074 282.522 5.98831C283.199 5.44391 284.08 5.10367 284.893 5.10367C286.993 5.10367 288.686 6.80489 288.686 8.91441C288.686 10.0712 288.212 11.16 287.331 11.8405C287.331 10.6837 286.383 9.79904 285.299 9.79904C284.148 9.79904 283.267 10.7517 283.267 11.8405V30.554L279.474 34.3647V0.612442H279.406Z" fill="black"/>
<path d="M245.743 34.3647C246.826 36.2701 248.926 37.4949 251.094 37.4949C250.552 38.1754 250.213 39.0601 250.213 39.8767C250.213 41.9862 251.906 43.6874 254.006 43.6874C255.158 43.6874 256.241 43.2111 256.919 42.3264C255.767 42.3264 254.887 41.3737 254.887 40.285C254.887 39.1281 255.835 38.2435 256.919 38.2435H275.613L279.406 34.4327L245.743 34.3647Z" fill="white"/>
<path d="M245.743 34.3647C246.826 32.4593 248.926 31.2345 251.094 31.2345C250.552 30.554 250.213 29.6693 250.213 28.8527C250.213 26.7432 251.906 25.042 254.006 25.042C255.158 25.042 256.241 25.5183 256.919 26.403C255.767 26.403 254.887 27.3557 254.887 28.4444C254.887 29.6013 255.835 30.4859 256.919 30.4859H275.613L279.406 34.2967L245.743 34.3647Z" fill="black"/>
<path d="M303.452 105.884C300.472 100.917 303.316 96.1531 303.316 96.1531C300.946 96.4253 298.914 97.5141 297.424 100.032C297.085 100.576 296.475 102.141 296.204 102.958C295.866 104.183 295.256 106.837 294.037 107.585C294.037 107.585 295.053 108.13 296.408 107.381C297.288 109.559 299.727 111.804 299.727 111.804C299.727 111.804 299.794 116.704 296.408 117.997C293.292 119.222 292.073 116.908 292.073 116.908C287.263 118.677 287.467 123.509 287.467 123.509H289.025C289.16 122.692 289.499 121.671 290.176 120.991C290.176 120.991 290.176 122.216 290.515 123.509H292.073C292.208 122.692 292.682 121.671 293.36 120.991C293.36 120.991 293.224 122.216 293.563 123.509H300.404C300.065 121.603 300.878 118.677 303.791 118.541C303.791 118.541 303.994 112.689 307.245 109.218C307.313 109.218 304.739 108.062 303.452 105.884Z" fill="white"/>
<path d="M334 53.5545H323.163C322.079 53.5545 321.537 54.0989 321.198 54.5072C320.792 55.1196 321.198 56.0043 321.876 57.093C322.35 57.7735 322.959 58.7943 323.433 59.6108C326.346 64.9187 326.481 69.8862 325.601 73.4248C324.517 77.6438 321.876 80.9782 321.876 80.9782C323.23 82.6114 324.449 84.0404 325.872 87.715C327.701 92.4104 325.059 94.5199 323.027 94.8602C320.995 95.2004 316.457 93.8394 313.138 86.1499C312.393 84.3806 311.58 81.3184 311.174 79.1409C310.564 75.6023 309.074 72.9484 305.281 71.1792C302.639 69.9543 298.643 70.1584 296.137 72.2679C293.834 74.2414 293.427 76.8953 293.427 76.8953C291.869 79.0048 285.841 80.8421 283.064 79.0048C281.777 78.1882 281.303 77.2355 281.371 76.487C281.371 75.7384 281.913 75.0579 281.913 75.0579C280.897 73.6289 278.119 72.336 275.613 72.5401V74.1733C276.494 74.2414 277.171 74.4455 277.781 75.126C277.781 75.126 276.765 75.194 275.613 75.3982V77.2355C276.358 77.4397 277.171 77.7119 277.781 78.1882C277.781 78.1882 276.562 78.2562 275.613 78.5965V82.5433C281.1 80.706 285.232 86.9665 285.232 86.9665C285.232 86.9665 286.993 82.7475 292.953 85.1292C302.639 89.076 304.062 79.5492 304.062 79.5492C304.062 79.5492 305.484 83.1558 303.249 86.0138C300.472 89.6204 296.272 88.2594 296.272 88.2594C296.408 89.6204 298.033 91.3216 299.388 92.1382C298.304 93.0229 297.965 94.588 297.965 94.588C297.965 94.588 299.32 93.4992 301.962 93.4992C305.823 93.4311 307.584 94.656 307.584 94.656C301.623 100.372 305.823 106.565 310.225 108.606C313.815 110.307 317.405 111.464 317.405 111.464C317.405 111.464 321.469 115.683 318.76 117.589C316.321 119.29 313.951 117.112 313.951 117.112C309.887 118.473 309.48 123.577 309.48 123.577H311.174C311.309 122.828 311.851 121.535 312.461 120.855C312.461 120.855 312.461 122.352 312.799 123.577H314.425C314.56 122.828 315.102 121.535 315.712 120.855C315.712 120.855 315.712 122.352 316.05 123.577H322.824C322.35 118.95 325.94 118.541 325.94 118.541C324.585 111.668 325.669 109.423 325.669 109.423C325.669 109.423 319.505 108.266 318.489 102.618C318.218 100.985 319.098 99.2153 319.505 97.8543C324.653 101.937 329.936 100.304 331.629 94.9963C332.916 90.9133 331.291 86.286 331.9 84.5848C331.9 84.5848 330.478 85.7416 330.342 87.3068C330.342 87.3068 329.597 85.8097 328.92 84.6528C325.533 78.9367 326.752 81.3184 328.581 75.3301C329.191 73.4248 330.004 69.546 328.31 64.9187C327.768 63.2855 325.669 59.815 325.262 59.1345C324.585 58.1138 324.653 57.6374 325.398 57.6374C325.601 57.6374 327.023 57.6374 328.039 58.454C329.055 59.2706 329.123 60.4274 329.123 60.4274C329.123 60.4274 330.342 59.2026 329.665 57.3652C329.665 57.3652 330.749 57.093 331.562 56.6167C333.594 55.0516 334 53.5545 334 53.5545Z" fill="white"/>
<path d="M303.926 50.6964V51.445H316.863V50.6964C316.863 49.8118 316.999 48.9952 317.27 48.1786C317.744 46.9537 318.286 45.5247 319.099 44.1637L315.78 46.0011C315.847 46.2052 315.847 46.4094 315.847 46.6135C315.847 47.7023 314.967 48.723 313.815 48.723C312.732 48.723 311.783 47.7023 311.783 46.6135C311.783 45.933 312.19 45.3206 312.731 44.9803C312.731 44.9803 312.19 44.3679 311.512 43.3472C310.699 41.9862 310.293 40.8293 310.293 40.8293C310.293 40.8293 309.887 41.9862 309.074 43.3472C308.464 44.3679 307.855 44.9803 307.855 44.9803C308.464 45.3206 308.803 45.933 308.803 46.6135C308.803 47.7023 307.922 48.723 306.771 48.723C305.687 48.723 304.739 47.7023 304.739 46.6135C304.739 46.4094 304.807 46.2052 304.807 46.0011L301.488 44.1637C302.233 45.5247 302.842 46.8857 303.316 48.1106C303.791 48.9272 303.926 49.8118 303.926 50.6964Z" fill="white"/>
<path d="M297.559 56.2764C297.83 56.2084 298.169 56.2084 298.101 56.4125C298.033 56.6167 297.83 56.7528 297.153 57.093C296.543 57.4333 296.543 57.9096 296.543 58.1818C296.543 58.9984 296.814 59.4067 297.085 59.7469C297.491 60.2913 296.882 60.4274 297.559 61.8565C297.695 61.3801 297.965 60.9718 298.304 60.6996C298.914 60.0872 299.997 59.815 301.014 60.1552C301.962 60.4955 302.504 61.3121 302.504 62.4008C302.504 63.6257 301.555 64.6465 300.133 64.6465C299.456 64.6465 298.643 64.3062 298.169 63.966C298.372 64.5104 298.643 64.9867 298.981 65.327C299.185 65.5311 298.778 65.8033 298.914 66.0755C299.32 66.824 299.93 67.5726 300.743 68.185C300.743 68.185 300.946 67.0962 302.03 66.2796C303.046 65.5311 304.129 65.5991 304.129 65.5991C306.094 67.1643 308.6 66.6199 309.683 65.5991C311.038 64.3743 311.58 62.673 311.58 62.673C311.58 62.673 312.325 63.8299 311.512 65.6672C311.174 66.5518 310.293 67.7087 308.735 68.185C307.719 68.5252 306.094 68.5253 305.213 68.5933C305.213 68.5933 307.855 69.0016 310.429 71.9277C311.241 72.8804 312.054 74.1733 312.664 76.0106C312.799 76.4189 312.935 76.9633 313.07 77.5077C313.273 78.3243 313.409 79.0728 313.544 79.6853C313.544 79.8214 313.612 79.8894 313.612 80.0255C313.612 80.0936 313.612 80.0936 313.612 80.1616C313.883 81.4545 314.154 82.2711 314.425 83.0197C316.05 87.1706 318.895 86.0819 318.895 86.0819C317.27 85.2653 316.728 83.8363 316.592 82.067C319.369 79.7533 325.398 71.7916 321.198 62.7411C320.047 60.2233 317.202 57.025 315.373 55.7321C315.373 55.7321 316.118 55.4599 316.592 54.6433C316.999 54.0989 317.134 53.5545 317.134 53.5545H306.094C305.348 53.5545 304.603 53.7586 303.994 54.0989C303.791 54.235 303.52 54.4391 303.452 54.5752C302.978 55.0516 302.436 55.7321 302.436 55.7321C302.436 55.7321 301.826 55.1196 300.743 55.1196C299.659 55.1196 296.543 55.1196 296.543 55.1196C296.543 55.1196 296.475 55.5279 296.611 55.9362C296.814 56.4806 297.22 56.4125 297.559 56.2764ZM305.213 55.9362C306.161 55.8001 307.177 56.2764 307.177 56.2764C306.703 56.3445 305.89 56.8208 305.552 57.2291C305.01 57.8416 304.671 58.454 304.671 58.454C304.671 58.454 304.129 58.1138 303.723 57.4333C303.452 57.025 303.316 56.6167 303.316 56.6167C303.791 56.4125 304.807 56.0042 305.213 55.9362Z" fill="white"/>
<path d="M147.461 114.73L147.935 114.799V115.343H147.596C146.58 115.343 144.887 115.275 142.584 115.275H141.906C141.906 114.322 141.974 113.097 141.974 111.668C141.161 112.961 140.078 113.982 138.655 114.73C137.3 115.479 135.878 115.887 134.32 115.955C131.949 116.023 130.188 115.411 129.105 113.982C128.631 113.369 128.292 112.553 128.089 111.668C127.885 110.716 127.818 109.491 127.75 108.062C127.75 107.381 127.75 106.088 127.75 104.115C127.75 102.141 127.75 100.848 127.75 100.168C127.682 98.807 127.005 98.1265 125.65 98.1265H125.244V97.5821H125.583L131.34 97.6502V105.952C131.34 106.633 131.34 107.109 131.34 107.517C131.34 107.858 131.34 108.334 131.408 108.946C131.408 109.491 131.475 109.967 131.543 110.307C131.611 110.648 131.679 110.988 131.814 111.464C131.949 111.872 132.085 112.213 132.288 112.485C132.491 112.757 132.695 112.961 132.966 113.233C133.236 113.506 133.575 113.642 133.914 113.778C134.32 113.914 134.727 113.982 135.201 114.05C136.352 114.118 137.639 113.846 138.926 113.233C140.213 112.621 141.229 111.804 141.839 110.852C141.839 109.967 141.906 108.538 141.906 106.565L141.839 100.372C141.771 99.0112 141.094 98.3307 139.739 98.3307H139.333V97.7863H139.671L145.496 97.8543L145.429 100.032C145.361 101.733 145.361 103.911 145.361 106.497L145.429 112.621C145.429 113.097 145.496 113.506 145.564 113.846C145.632 114.186 145.835 114.39 146.038 114.526C146.241 114.662 146.445 114.799 146.648 114.867C146.851 114.594 147.122 114.662 147.461 114.73Z" fill="white"/>
<path d="M166.291 112.757C166.358 113.165 166.426 113.506 166.494 113.778C166.629 114.05 166.765 114.186 166.968 114.322C167.171 114.458 167.374 114.526 167.645 114.594C167.849 114.662 168.187 114.662 168.594 114.73C168.729 114.73 168.797 114.73 168.865 114.73V115.275H168.729C167.442 115.275 166.426 115.207 165.613 115.207H163.243L160.127 115.275H159.924V114.73C160.398 114.662 160.804 114.662 161.007 114.594C161.211 114.526 161.482 114.458 161.752 114.322C162.023 114.186 162.227 113.982 162.294 113.778C162.43 113.506 162.498 113.165 162.565 112.757C162.633 112.077 162.701 108.402 162.701 101.733C162.701 95.6087 162.701 92.2063 162.633 91.5938C162.633 91.2536 162.565 90.9814 162.498 90.8453C162.43 90.7092 162.227 90.5731 162.023 90.5731C161.685 90.5051 161.143 90.5731 160.398 90.6411L160.262 90.1648C162.43 89.4843 164.394 88.8038 166.155 88.1233L166.291 88.1914C166.291 92.0021 166.223 96.5614 166.223 101.801C166.155 108.402 166.223 112.077 166.291 112.757Z" fill="white"/>
<path d="M172.861 104.863H181.328V106.36H172.861V104.863Z" fill="white"/>
<path d="M205.034 100.508C206.863 101.053 208.286 102.141 209.234 103.638C210.182 105.136 210.521 106.905 210.182 108.946C209.911 110.443 209.302 111.736 208.421 112.757C207.473 113.778 206.186 114.526 204.56 114.935C203.138 115.275 201.58 115.479 199.887 115.479C198.532 115.479 196.974 115.411 195.145 115.343C193.316 115.275 192.233 115.207 191.894 115.207L186.001 115.275V114.867C186.204 114.867 186.408 114.867 186.611 114.799C187.491 114.662 188.033 114.458 188.304 114.186C188.575 113.846 188.778 113.097 188.778 111.94C188.846 110.035 188.914 106.701 188.914 101.937C188.914 101.189 188.914 100.44 188.914 99.6916C188.914 98.9431 188.914 98.3307 188.914 97.7863C188.914 97.2419 188.914 96.6975 188.914 96.1531C188.914 95.6087 188.914 95.2004 188.914 94.7921C188.914 94.3838 188.914 94.0436 188.914 93.7033C188.914 93.3631 188.914 93.0909 188.914 92.8868C188.914 92.6826 188.914 92.4785 188.914 92.3424C188.914 92.2063 188.914 92.0702 188.914 92.0021V91.866C188.914 90.7092 188.711 89.9607 188.44 89.6204C188.169 89.2802 187.559 89.076 186.746 89.008L186.137 88.9399V88.4636C187.559 88.4636 189.456 88.5316 191.826 88.5316C192.3 88.5316 193.113 88.4636 194.332 88.3955C195.552 88.3275 196.568 88.2594 197.381 88.2594C200.835 88.1914 203.409 88.7358 205.034 90.0287C206.66 91.3216 207.405 93.0909 207.134 95.5407C206.931 97.5141 205.78 99.0112 203.748 100.032C204.154 100.304 204.628 100.372 205.034 100.508ZM203.815 94.8602C203.815 93.8394 203.612 92.9548 203.206 92.2063C202.799 91.4577 202.325 90.8453 201.648 90.369C200.97 89.8926 200.225 89.5524 199.413 89.3482C198.6 89.1441 197.651 89.008 196.635 89.008C194.942 89.008 193.52 89.2121 192.436 89.5524C192.436 89.8926 192.436 90.3009 192.436 90.8453C192.436 91.3897 192.436 92.1382 192.436 93.0229C192.436 93.9075 192.436 94.7241 192.436 95.4046C192.504 96.4253 192.707 97.3099 193.113 97.9904C193.452 98.6709 193.994 99.1473 194.603 99.4875C195.213 99.8277 195.823 100.032 196.5 100.1C197.11 100.236 197.855 100.236 198.735 100.168C200.158 100.1 201.174 100.1 201.648 100.1C202.325 99.6236 202.935 98.8751 203.341 97.9224C203.68 96.9697 203.883 95.949 203.815 94.8602ZM206.525 107.449C206.592 106.292 206.321 105.204 205.847 104.251C205.373 103.298 204.56 102.482 203.477 101.869C202.393 101.257 201.106 100.917 199.683 100.917H197.177C195.145 100.985 193.587 100.576 192.368 99.6916V102.141C192.368 106.905 192.436 111.056 192.504 114.594C193.858 114.662 195.416 114.73 197.11 114.662C199.48 114.594 201.377 114.322 202.664 113.71C203.951 113.029 204.899 112.213 205.509 111.192C206.118 110.171 206.457 108.946 206.525 107.449Z" fill="white"/>
<path d="M223.797 113.982C225.219 114.05 226.506 113.846 227.793 113.369C229.012 112.893 229.961 112.213 230.502 111.464L230.977 111.736C230.299 113.097 229.283 114.118 227.929 114.935C226.574 115.751 224.881 116.091 222.849 116.023C221.155 115.955 219.53 115.547 218.107 114.799C216.685 114.05 215.533 112.893 214.653 111.464C213.772 110.035 213.298 108.334 213.298 106.497C213.23 103.707 214.043 101.393 215.804 99.5556C217.565 97.7182 219.936 96.8336 222.849 96.8336C225.084 96.8336 226.98 97.446 228.606 98.6709C230.232 99.8277 231.18 101.461 231.383 103.502L217.023 103.57C216.888 104.523 216.82 105.544 216.888 106.633C217.091 108.81 217.836 110.579 219.055 111.872C220.342 113.165 221.9 113.846 223.797 113.982ZM222.781 97.446C221.426 97.446 220.207 97.9224 219.259 98.8751C218.31 99.8278 217.633 101.121 217.227 102.686H227.725C227.658 102.005 227.454 101.325 227.251 100.78C227.048 100.168 226.709 99.6236 226.371 99.1473C225.964 98.6029 225.49 98.2626 224.881 97.9224C224.271 97.5821 223.526 97.446 222.781 97.446Z" fill="white"/>
<path d="M240.188 112.757C240.256 113.165 240.324 113.506 240.392 113.778C240.527 114.05 240.663 114.186 240.866 114.322C241.069 114.458 241.272 114.526 241.543 114.594C241.746 114.662 242.085 114.662 242.491 114.73C242.627 114.73 242.695 114.73 242.762 114.73V115.275H242.627C241.34 115.275 240.324 115.207 239.511 115.207H237.14L234.025 115.275H233.821V114.73C234.296 114.662 234.702 114.662 234.905 114.594C235.108 114.526 235.379 114.458 235.65 114.322C235.921 114.186 236.124 113.982 236.192 113.778C236.328 113.506 236.395 113.165 236.463 112.757C236.531 112.077 236.599 108.402 236.599 101.733C236.599 95.6087 236.599 92.2063 236.531 91.5938C236.531 91.2536 236.463 90.9814 236.395 90.8453C236.328 90.7092 236.124 90.5731 235.921 90.5731C235.582 90.5051 235.041 90.5731 234.296 90.6411L234.16 90.1648C236.328 89.4843 238.292 88.8038 240.053 88.1233L240.188 88.1914C240.188 92.0021 240.121 96.5614 240.121 101.801C240.053 108.402 240.121 112.077 240.188 112.757Z" fill="white"/>
<path d="M258.68 113.369L258.951 113.71C258.409 114.39 257.596 115.003 256.648 115.411C255.632 115.887 254.48 116.091 253.193 116.023C249.4 115.887 247.504 113.71 247.504 109.355V98.1946H244.32V97.7182C246.014 97.5821 247.436 97.1058 248.587 96.0851C249.671 95.1324 250.349 93.5673 250.552 91.5258H251.161L251.094 97.5141H256.309V98.1946H251.094L251.026 103.638V107.926C251.026 108.606 251.026 109.218 251.094 109.695C251.094 110.171 251.229 110.716 251.297 111.26C251.432 111.804 251.568 112.281 251.771 112.689C251.974 113.029 252.245 113.369 252.651 113.71C253.058 114.05 253.464 114.254 254.006 114.322C254.819 114.526 255.7 114.458 256.512 114.322C257.393 114.118 258.138 113.778 258.68 113.369Z" fill="white"/>
<path d="M13.3473 56.8208C12.8732 56.8889 12.5345 56.8889 12.3313 57.025C12.0603 57.093 11.8571 57.2291 11.5862 57.4333C11.383 57.6374 11.1798 57.9096 11.1121 58.3179C11.0443 58.7262 10.9766 59.2026 10.9766 59.883C10.9089 61.176 10.9089 64.4423 10.9089 69.6821L10.9766 79.4811C10.9766 80.0936 11.0443 80.638 11.1121 81.0462C11.1798 81.4545 11.383 81.7267 11.5862 81.9309C11.7894 82.135 12.0603 82.2711 12.3313 82.3392C12.6022 82.4072 12.9409 82.4753 13.3473 82.5433L13.9569 82.6114V83.0877C12.2635 83.0877 10.6379 83.0197 9.08005 83.0197L4 82.8836V82.4072C4.2032 82.4072 4.4064 82.4072 4.60961 82.3392C5.08374 82.2711 5.42241 82.2711 5.62562 82.135C5.89655 82.067 6.09975 81.9309 6.30296 81.7267C6.50616 81.5226 6.70936 81.2504 6.77709 80.8421C6.84483 80.4338 6.91256 79.9575 6.91256 79.345C7.04803 77.5758 7.11576 74.3094 7.11576 69.546C7.11576 67.2323 7.11576 65.2589 7.04803 63.6257C7.04803 61.9926 6.9803 60.9038 6.9803 60.4955L6.91256 59.815C6.91256 58.9984 6.77709 58.386 6.57389 57.9096C6.37069 57.5013 6.09975 57.1611 5.82882 57.093C5.55788 56.9569 5.08374 56.8889 4.54187 56.8208L4 56.7528V56.2764C5.49015 56.2764 7.1835 56.3445 9.08005 56.3445L13.9569 56.2764V56.7528C13.686 56.7528 13.4828 56.7528 13.3473 56.8208Z" fill="white"/>
<path d="M38.6798 80.8421L38.8153 81.3865C36.7155 81.9989 34.7512 82.6794 32.9902 83.2919L32.787 83.2238C32.787 82.6114 32.8547 81.7267 32.8547 80.638C31.3645 82.4072 29.4003 83.3599 26.8941 83.496C24.1847 83.6321 21.8818 82.8155 20.053 81.0462C18.2241 79.2089 17.2759 76.8272 17.3436 73.9011C17.3436 71.2472 18.2241 69.0696 19.9175 67.3684C21.6108 65.6672 23.7783 64.7145 26.42 64.5784C29.0616 64.4423 31.2291 64.9187 32.9224 66.0074C32.9224 62.605 32.8547 60.4274 32.787 59.4747C32.787 59.2706 32.787 59.0665 32.7192 58.9984C32.7192 58.9304 32.6515 58.7943 32.6515 58.6582C32.5837 58.5221 32.516 58.386 32.4483 58.3179C32.3805 58.2499 32.2451 58.1818 32.0419 58.1818C31.7032 58.1138 31.1613 58.1818 30.4163 58.386L30.2808 57.8416C32.3128 57.2291 34.2094 56.5486 36.1059 55.8001L36.1737 55.8682C36.1059 59.883 36.0382 64.4423 36.0382 69.4779C36.0382 72.336 36.1059 75.5343 36.1737 79.1409C36.1737 79.8214 36.3091 80.3658 36.5123 80.638C36.7155 80.9102 37.0542 81.1143 37.3929 81.0462C37.7993 80.9101 38.2057 80.9102 38.6798 80.8421ZM27.7069 81.8628C29.8744 81.8628 31.5677 81.0462 32.787 79.345V78.6645C32.787 78.1201 32.787 77.0314 32.787 75.3301C32.787 73.6289 32.787 72.336 32.787 71.3833C32.7192 69.7501 32.3805 68.4572 31.7032 67.3684C31.0259 66.2796 30.1453 65.5991 29.1293 65.2589C28.1133 64.9187 26.9618 64.8506 25.7426 65.1909C24.1847 65.5311 22.9655 66.4838 22.1527 67.9809C21.2722 69.4779 20.9335 71.4514 21.069 73.8331C21.2044 76.2148 21.8818 78.1201 23.101 79.6172C24.3202 81.1143 25.8781 81.8628 27.7069 81.8628Z" fill="white"/>
<path d="M42.4052 72.4721H50.8719V73.9692H42.4052V72.4721Z" fill="white"/>
<path d="M69.702 56.2764C72.2081 56.4806 74.3756 57.1611 76.2044 58.3179C78.0333 59.4747 79.3202 60.9718 80.2007 62.8091C81.0813 64.6465 81.4877 66.824 81.4877 69.2738C81.4877 71.5875 81.0813 73.697 80.2685 75.6704C79.5234 77.6438 78.3042 79.1409 76.7463 80.2977C75.6626 81.1143 74.5788 81.6587 73.3596 82.135C72.2081 82.5433 70.718 82.8155 68.9569 82.9516C67.399 83.0197 66.4507 83.0197 66.0443 83.0197C65.6379 83.0197 64.6897 83.0197 63.1995 82.9516C61.7094 82.8836 60.8966 82.8836 60.8288 82.8836L55.4778 82.9516V82.4753C55.681 82.4753 55.8842 82.4753 56.0875 82.4072C56.5616 82.3392 56.9003 82.2711 57.1712 82.2031C57.4421 82.135 57.6453 81.9989 57.9163 81.7948C58.1872 81.5906 58.3227 81.3184 58.4581 80.9782C58.5259 80.638 58.5936 80.0936 58.5936 79.5492C58.6613 77.3036 58.7291 74.0372 58.7291 69.6821C58.7291 67.5045 58.7291 65.5311 58.7291 63.8979C58.7291 62.2647 58.6613 61.176 58.6613 60.6316V59.815C58.6613 59.2025 58.5936 58.7262 58.5259 58.386C58.4581 58.0457 58.2549 57.7055 57.984 57.5694C57.7131 57.3652 57.5099 57.2291 57.2389 57.1611C56.968 57.093 56.6293 57.025 56.1552 56.9569L55.4778 56.8208V56.2764C57.1712 56.2764 58.4581 56.3445 59.2032 56.3445H59.9483C60.5579 56.3445 61.5739 56.3445 62.8608 56.2764C64.1478 56.2084 65.2315 56.2084 66.0443 56.2084C66.8572 56.1403 68.0764 56.1403 69.702 56.2764ZM77.085 69.4099C77.1527 65.7352 76.3399 62.8091 74.7143 60.6996C73.0887 58.5221 70.8535 57.2972 68.1441 57.025C66.1121 56.8208 64.2155 56.8208 62.4544 57.093C62.3867 59.2706 62.3867 63.4216 62.3867 69.6821C62.3867 71.3153 62.3867 73.2206 62.3867 75.5343C62.3867 77.8479 62.3867 79.277 62.3867 79.9575C62.3867 80.8421 62.5899 81.4545 62.9963 81.7948C63.4027 82.135 64.0801 82.3392 64.9606 82.4072C66.383 82.4753 67.7377 82.3392 69.0924 81.9989C70.4471 81.6587 71.5985 81.1143 72.5468 80.4338C73.9692 79.4811 75.053 78.0521 75.8658 76.2148C76.6786 74.2414 77.085 71.9957 77.085 69.4099Z" fill="white"/>
<path d="M106.211 82.3392L106.685 82.4072V82.9516H106.278C105.262 82.9516 103.569 82.8836 101.266 82.8836H100.589C100.589 81.9309 100.656 80.706 100.656 79.277C99.8436 80.5699 98.7598 81.5906 97.3374 82.3392C95.9827 83.0877 94.5603 83.496 93.0024 83.5641C90.6317 83.6321 88.8707 83.0197 87.7869 81.5906C87.3128 80.9782 86.9741 80.1616 86.7709 79.277C86.5677 78.3243 86.5 77.0994 86.4322 75.6704C86.4322 74.9899 86.4322 73.697 86.4322 71.7236C86.4322 69.7501 86.4322 68.4572 86.4322 67.7767C86.3645 66.4157 85.6872 65.7352 84.3325 65.7352H83.9261V65.1909H84.2648L90.0221 65.2589V73.4928C90.0221 74.1733 90.0221 74.6497 90.0221 75.0579C90.0221 75.3982 90.0221 75.8745 90.0899 76.487C90.0899 77.0314 90.1576 77.5077 90.2253 77.848C90.2931 78.1882 90.3608 78.5284 90.4963 79.0048C90.6317 79.4131 90.7672 79.7533 90.9704 80.0255C91.1736 80.2977 91.3768 80.5019 91.6478 80.7741C91.9187 81.0462 92.2574 81.1823 92.596 81.3184C93.0024 81.4545 93.4088 81.5226 93.883 81.5906C95.0345 81.6587 96.3214 81.3865 97.6084 80.7741C98.8953 80.1616 99.9113 79.345 100.521 78.3923C100.521 77.5077 100.589 76.0787 100.589 74.1053L100.521 67.9128C100.453 66.5518 99.7758 65.8713 98.4212 65.8713H98.0148V65.327H98.3534L104.179 65.395L104.246 67.3684C104.179 69.0696 104.179 71.2472 104.179 73.8331L104.246 79.9575C104.246 80.4338 104.314 80.8421 104.382 81.1823C104.449 81.5226 104.653 81.7267 104.856 81.8628C105.059 81.9989 105.262 82.135 105.465 82.2031C105.601 82.2031 105.872 82.2711 106.211 82.3392Z" fill="white"/>
<path d="M143.464 80.2977C143.532 81.1823 143.668 81.7267 143.938 81.9309C144.209 82.135 144.751 82.2711 145.632 82.4072V82.9516H145.429C144.48 82.9516 143.6 82.8836 142.787 82.8836H142.651L137.842 82.9516H137.707V82.3392C138.587 82.2711 139.129 82.135 139.4 81.8628C139.671 81.6587 139.807 81.1143 139.874 80.2297V73.9692C139.874 73.2887 139.874 72.7443 139.874 72.2679C139.874 71.7916 139.807 71.3153 139.739 70.7709C139.671 70.2265 139.603 69.7501 139.468 69.4099C139.333 69.0696 139.197 68.6614 138.994 68.2531C138.791 67.8448 138.587 67.5726 138.317 67.3004C138.046 67.0962 137.707 66.8921 137.301 66.6879C136.894 66.4838 136.488 66.4157 135.946 66.3477C134.998 66.2116 133.846 66.4157 132.627 66.824C131.408 67.2323 130.392 67.9128 129.511 68.7974C129.714 69.8862 129.782 71.0431 129.782 72.2679C129.782 72.9484 129.782 74.2414 129.782 76.2828C129.782 78.2562 129.782 79.6172 129.782 80.2977C129.85 81.1823 129.985 81.7267 130.256 81.9309C130.527 82.135 131.069 82.2711 131.95 82.4072V82.9516H131.814C130.866 82.9516 129.985 82.8836 129.172 82.8836H129.037L124.228 82.9516H124.092V82.3392C124.905 82.2711 125.515 82.135 125.718 81.8628C125.989 81.6587 126.124 81.1143 126.192 80.2297V74.2414C126.192 73.697 126.192 73.2887 126.192 72.9484C126.192 72.6762 126.192 72.2679 126.192 71.7916C126.192 71.3153 126.124 70.907 126.124 70.7028C126.124 70.4306 126.057 70.0904 125.989 69.7501C125.921 69.3418 125.853 69.0696 125.786 68.8655C125.718 68.6613 125.583 68.3892 125.447 68.117C125.312 67.8448 125.176 67.5726 124.973 67.4365C124.77 67.3004 124.567 67.0962 124.363 66.9601C124.16 66.824 123.889 66.6879 123.551 66.6199C123.28 66.5518 122.941 66.4838 122.535 66.4157C121.383 66.2796 120.164 66.4838 118.877 67.0282C117.522 67.5726 116.506 68.3211 115.693 69.4099C115.693 70.3626 115.626 71.7916 115.626 73.8331L115.693 80.2977C115.693 80.7741 115.761 81.1143 115.829 81.3865C115.897 81.6587 116.032 81.8628 116.235 81.9989C116.438 82.135 116.642 82.2031 116.845 82.2711C117.048 82.3392 117.387 82.3392 117.861 82.4072V82.9516H117.725C116.777 82.9516 115.829 82.8836 115.016 82.8836H114.881L110.004 82.9516H109.868V82.3392C110.749 82.2711 111.291 82.135 111.629 81.8628C111.9 81.5906 112.103 81.0463 112.103 80.2297C112.171 78.5965 112.171 76.487 112.171 73.765C112.171 70.5667 112.171 68.5933 112.103 67.7767C112.103 67.7767 112.103 67.7087 112.103 67.6406C112.103 67.5726 112.103 67.5045 112.103 67.4365C112.103 67.4365 112.103 67.3684 112.103 67.3004C112.103 67.2323 112.103 67.1643 112.103 67.1643C112.103 67.1643 112.103 67.0962 112.036 67.0282C112.036 66.9601 111.968 66.8921 111.968 66.8921C111.968 66.8921 111.9 66.824 111.833 66.824C111.765 66.824 111.765 66.756 111.697 66.756C111.629 66.756 111.562 66.756 111.494 66.756C111.223 66.756 110.681 66.824 109.868 66.8921L109.733 66.3477C111.697 65.7352 113.729 65.0548 115.693 64.2382L115.829 64.3062C115.829 65.5311 115.761 66.8921 115.761 68.5252C116.642 67.2323 117.861 66.2116 119.283 65.463C120.773 64.6465 122.196 64.3062 123.618 64.3062C124.77 64.3062 125.786 64.4423 126.531 64.7145C127.344 64.9867 128.021 65.5311 128.631 66.2796C128.969 66.756 129.24 67.3004 129.443 68.117C130.324 67.0282 131.475 66.1435 132.83 65.463C134.185 64.7826 135.472 64.4423 136.759 64.3743C139.197 64.3062 141.026 64.9867 142.177 66.4838C142.652 67.0962 142.99 67.8448 143.126 68.7974C143.329 69.7501 143.397 70.907 143.464 72.404C143.464 73.2887 143.464 74.5816 143.464 76.4189C143.464 78.2562 143.464 79.4131 143.464 80.2977Z" fill="white"/>
<path d="M168.865 80.2977C168.932 81.1823 169.068 81.7267 169.339 81.9309C169.61 82.135 170.151 82.2711 171.032 82.4072V82.9516H170.897C169.948 82.9516 169.068 82.8836 168.255 82.8836H168.119L163.31 82.9516H163.175V82.3392C163.988 82.2711 164.597 82.135 164.8 81.8628C165.071 81.6587 165.207 81.1143 165.275 80.2297V74.2414C165.275 73.697 165.275 73.2887 165.275 73.0165C165.275 72.7443 165.275 72.336 165.275 71.8596C165.275 71.3833 165.207 70.975 165.207 70.7709C165.207 70.4987 165.139 70.2265 165.071 69.8182C165.004 69.4099 164.936 69.1377 164.868 68.9335C164.8 68.7294 164.665 68.4572 164.53 68.185C164.394 67.9128 164.259 67.6406 164.055 67.5045C163.852 67.3684 163.649 67.1643 163.446 67.0282C163.243 66.824 162.972 66.756 162.633 66.6199C162.362 66.5518 162.023 66.4838 161.617 66.4157C160.466 66.2796 159.246 66.4838 157.892 67.0282C156.537 67.5726 155.453 68.3892 154.64 69.546C154.64 70.4987 154.573 71.8596 154.573 73.765L154.64 80.2297C154.64 80.706 154.708 81.0462 154.776 81.3184C154.844 81.5906 154.979 81.7948 155.182 81.9309C155.385 82.067 155.589 82.135 155.792 82.2031C155.995 82.2711 156.334 82.2711 156.808 82.3392V82.8836H156.672C155.724 82.8836 154.776 82.8155 153.963 82.8155H153.692L148.815 82.8836H148.68V82.3392C149.56 82.2711 150.102 82.135 150.441 81.8628C150.712 81.5906 150.915 81.0463 150.915 80.2297C150.983 78.5965 150.983 76.487 150.983 73.765C150.983 70.4306 150.983 68.4572 150.915 67.7767C150.915 67.7767 150.915 67.7087 150.915 67.6406C150.915 67.5726 150.915 67.5045 150.915 67.5045C150.915 67.5045 150.915 67.4365 150.915 67.3684C150.915 67.3004 150.915 67.2323 150.915 67.2323C150.915 67.2323 150.915 67.1643 150.915 67.0962C150.915 67.0282 150.915 67.0282 150.847 66.9601L150.78 66.8921C150.78 66.8921 150.712 66.824 150.644 66.824C150.576 66.824 150.576 66.756 150.509 66.756C150.441 66.756 150.441 66.756 150.373 66.756C150.034 66.756 149.56 66.756 148.883 66.8921L148.748 66.3477C150.644 65.8033 152.608 65.1228 154.64 64.3062L154.776 64.3743V64.5104C154.776 64.5784 154.776 64.7145 154.776 64.8506C154.776 64.9867 154.776 65.1228 154.776 65.327C154.776 65.5311 154.776 65.7352 154.776 65.9394C154.776 66.2116 154.776 66.4157 154.776 66.6879C154.776 66.9601 154.776 67.2323 154.776 67.5726C154.776 67.9128 154.776 68.185 154.776 68.5252C155.656 67.3004 156.876 66.2796 158.366 65.463C159.856 64.6465 161.346 64.2382 162.768 64.2382C163.92 64.2382 164.936 64.3743 165.681 64.6465C166.494 64.9187 167.171 65.4631 167.781 66.2116C168.255 66.756 168.594 67.5726 168.729 68.5252C168.932 69.4779 169 70.7028 169 72.2679C169 72.9484 169 74.2414 169 76.2828C168.797 78.2562 168.865 79.6172 168.865 80.2977Z" fill="white"/>
<path d="M180.176 80.2977C180.176 80.7741 180.244 81.1143 180.312 81.3865C180.379 81.6587 180.515 81.8628 180.718 81.9989C180.921 82.135 181.124 82.2031 181.328 82.2711C181.531 82.3392 181.869 82.3392 182.411 82.4072V82.9516H182.208C181.26 82.9516 179.567 82.8836 177.264 82.8836H177.128L174.419 82.9516H174.283V82.3392C175.164 82.2711 175.773 82.135 176.044 81.8628C176.383 81.5906 176.518 81.0463 176.518 80.2297C176.586 78.8006 176.586 76.6231 176.586 73.765C176.586 70.4306 176.586 68.4572 176.518 67.7767C176.518 67.5726 176.518 67.5045 176.518 67.4365C176.518 67.3684 176.518 67.3004 176.451 67.1643C176.451 67.0282 176.383 66.9601 176.383 66.8921C176.315 66.824 176.315 66.824 176.18 66.756C176.112 66.6879 175.977 66.6879 175.909 66.6879C175.57 66.6879 175.028 66.6879 174.351 66.824L174.216 66.2796C176.044 65.7352 178.009 64.9867 180.108 64.2382L180.244 64.3062C180.176 67.7767 180.176 70.907 180.176 73.697V80.2977ZM178.144 61.3801C177.602 61.3801 177.06 61.176 176.654 60.7677C176.248 60.3594 176.044 59.815 176.044 59.2706C176.044 58.7262 176.248 58.3179 176.654 57.9096C177.06 57.5013 177.534 57.2972 178.144 57.2972C178.754 57.2972 179.228 57.5013 179.634 57.9096C180.041 58.3179 180.244 58.7262 180.244 59.2706C180.244 59.883 180.041 60.3594 179.634 60.7677C179.228 61.176 178.754 61.3801 178.144 61.3801Z" fill="white"/>
<path d="M213.501 87.5789C214.585 87.715 215.466 87.715 216.143 87.5789C216.82 87.4428 217.294 87.2387 217.565 87.0346L217.768 87.2387C216.752 88.6677 215.262 89.4163 213.366 89.5524C211.537 89.6204 209.911 89.2121 208.557 88.2594C207.202 87.3067 205.847 85.7416 204.56 83.496C204.222 82.9516 203.883 82.2711 203.477 81.5226C203.07 80.7741 202.596 79.8894 202.122 78.8687C201.648 77.848 201.241 77.0994 200.97 76.6231C200.903 76.555 200.835 76.3509 200.767 76.1467C200.496 75.6023 200.225 75.126 200.09 74.8538C199.954 74.5816 199.683 74.1733 199.345 73.6289C199.006 73.1526 198.735 72.7443 198.464 72.4721C198.193 72.1999 197.855 71.9277 197.448 71.7236C197.042 71.5194 196.635 71.3153 196.229 71.2472C195.552 71.1792 194.874 71.1792 194.197 71.3833C193.587 71.5875 193.046 71.9277 192.571 72.336C192.639 77.3036 192.639 79.9575 192.707 80.2977C192.775 80.706 192.842 81.0463 192.91 81.3184C193.046 81.5906 193.181 81.7267 193.384 81.8628C193.587 81.9989 193.858 82.067 194.062 82.135C194.265 82.2031 194.603 82.2031 195.01 82.2711C195.145 82.2711 195.213 82.2711 195.281 82.2711V82.7475H195.145C193.858 82.7475 192.842 82.6794 191.962 82.6794H189.591L186.475 82.7475H186.34V82.2711C186.814 82.2031 187.22 82.2031 187.424 82.135C187.627 82.067 187.898 81.9989 188.169 81.8628C188.44 81.7267 188.575 81.5226 188.711 81.3184C188.846 81.0463 188.914 80.706 188.982 80.2977C189.049 79.6172 189.117 75.8745 189.117 69.2057C189.117 63.0133 189.117 59.5428 189.049 58.9304C189.049 58.7262 189.049 58.5221 188.982 58.386C188.982 58.2499 188.914 58.1138 188.778 58.0457C188.711 57.9096 188.575 57.8416 188.372 57.8416C188.169 57.7735 187.491 57.8416 186.34 57.9777L186.272 57.5694C187.085 57.3652 188.169 57.025 189.523 56.5486C190.878 56.0723 191.894 55.7321 192.504 55.4599L192.639 55.5279C192.639 59.3386 192.571 63.8979 192.571 69.1377V71.5875C193.046 70.975 193.723 70.4306 194.468 70.0223C195.213 69.614 196.094 69.4099 196.974 69.4099C197.448 69.4099 197.855 69.4779 198.193 69.546C198.532 69.2057 198.871 68.7974 199.074 68.3211C199.277 67.8448 199.345 67.4365 199.345 66.9601C199.345 66.5518 199.142 66.1435 198.803 65.8713C198.464 65.5992 197.922 65.395 197.177 65.395H197.042V64.8506H197.177L198.6 64.9187C199.548 64.9187 200.293 64.9867 200.699 64.9867L203.477 64.9187H204.493V65.463C204.086 65.463 203.68 65.5991 203.341 65.7352C203.002 65.9394 202.732 66.0755 202.596 66.1435C202.461 66.2796 202.19 66.4838 201.851 66.8921C201.512 67.3004 201.309 67.5045 201.241 67.5726C200.361 68.4572 199.616 69.1377 199.006 69.7501C199.548 69.8862 199.954 70.0904 200.361 70.3626C201.174 70.8389 201.851 71.5194 202.461 72.336C203.07 73.1526 203.68 74.1733 204.289 75.4662C204.425 75.6704 204.831 76.487 205.644 78.0521C206.457 79.5492 206.999 80.5699 207.27 81.0462C208.489 83.2238 209.505 84.7889 210.453 85.6736C211.266 86.7624 212.35 87.3748 213.501 87.5789Z" fill="white"/>
<path d="M231.112 82.2711L231.586 82.3392V82.8836H231.18H228.538H226.506H225.964C225.829 81.7948 225.761 81.0463 225.761 80.638C225.016 81.4545 224 82.2031 222.849 82.7475C221.629 83.2919 220.41 83.6321 219.055 83.7002C217.972 83.7682 216.956 83.7002 216.075 83.428C215.195 83.1558 214.449 82.8155 213.908 82.3392C213.366 81.8628 212.959 81.3865 212.621 80.8421C212.35 80.2977 212.147 79.7533 212.079 79.1409C212.011 78.5965 212.011 78.0521 212.079 77.5077C212.147 77.0314 212.282 76.487 212.621 75.9426C212.959 75.3982 213.298 74.9219 213.772 74.4455C214.246 73.9692 214.991 73.5609 215.872 73.0845C216.752 72.6082 217.768 72.2679 218.988 71.8596C219.123 71.7916 219.394 71.7236 219.8 71.6555C220.207 71.5875 220.546 71.4514 220.816 71.3833C221.087 71.3153 221.426 71.1792 221.833 71.1111C222.239 70.975 222.645 70.8389 222.916 70.7028C223.187 70.5667 223.526 70.4306 223.865 70.2265C224.203 70.0223 224.542 69.8182 224.745 69.6821C224.948 69.4779 225.151 69.2738 225.355 69.0016C225.558 68.7294 225.626 68.4572 225.693 68.185C225.693 68.0489 225.693 67.7087 225.626 67.2323C225.49 66.6199 225.219 66.1435 224.745 65.6672C223.865 65.0548 222.645 64.8506 220.952 65.0548C219.597 65.2589 218.31 65.8033 217.227 66.756C216.143 67.7087 215.262 69.0016 214.585 70.7028H214.111L213.298 66.6879C213.84 66.2116 214.585 65.8033 215.601 65.395C216.549 64.9867 217.701 64.7145 218.92 64.5104C219.733 64.3743 220.546 64.3062 221.358 64.2382C222.171 64.2382 223.052 64.2382 223.932 64.3743C224.813 64.5104 225.558 64.7145 226.235 65.0548C226.913 65.395 227.454 65.8033 227.929 66.4157C228.403 67.0282 228.674 67.7087 228.741 68.5933C228.877 69.546 228.945 70.907 228.945 72.5401C228.945 76.555 229.012 79.0048 229.08 79.8214C229.08 81.3184 229.757 82.067 231.112 82.2711ZM220.749 81.8628C221.765 81.7948 222.713 81.5906 223.594 81.1824C224.474 80.7741 225.219 80.2297 225.693 79.6172C225.626 78.5284 225.626 76.6231 225.626 74.0372V70.2945V70.1584C225.287 70.5667 224.813 70.975 224.135 71.3153C223.458 71.6555 222.307 72.0638 220.613 72.6762C219.868 72.9484 219.191 73.2206 218.581 73.5609C217.972 73.9011 217.498 74.2414 217.159 74.5816C216.82 74.9218 216.482 75.2621 216.278 75.6704C216.007 76.0787 215.872 76.4189 215.804 76.6911C215.736 77.0314 215.669 77.3716 215.669 77.6438C215.669 77.984 215.669 78.2562 215.736 78.4604C215.94 79.6172 216.482 80.5019 217.362 81.0462C218.243 81.6587 219.394 81.9309 220.749 81.8628Z" fill="white"/>
<path d="M254.142 80.2977C254.209 81.1823 254.345 81.7267 254.616 81.9309C254.887 82.135 255.429 82.2711 256.309 82.4072V82.9516H256.174C255.225 82.9516 254.345 82.8836 253.532 82.8836H253.397L248.587 82.9516H248.452V82.3392C249.265 82.2711 249.874 82.135 250.078 81.8628C250.348 81.6587 250.484 81.1143 250.552 80.2297V74.2414C250.552 73.697 250.552 73.2887 250.552 73.0165C250.552 72.7443 250.552 72.336 250.552 71.8596C250.552 71.3833 250.484 70.975 250.484 70.7709C250.484 70.4987 250.416 70.2265 250.349 69.8182C250.281 69.4099 250.213 69.1377 250.145 68.9335C250.078 68.7294 249.942 68.4572 249.807 68.185C249.671 67.9128 249.536 67.6406 249.332 67.5045C249.129 67.3684 248.926 67.1643 248.723 67.0282C248.52 66.824 248.249 66.756 247.91 66.6199C247.639 66.5518 247.3 66.4838 246.894 66.4157C245.743 66.2796 244.523 66.4838 243.169 67.0282C241.814 67.5726 240.73 68.3892 239.917 69.546C239.917 70.4987 239.85 71.8596 239.85 73.765L239.917 80.2297C239.917 80.706 239.985 81.0462 240.053 81.3184C240.121 81.5906 240.256 81.7948 240.459 81.9309C240.663 82.067 240.866 82.135 241.069 82.2031C241.272 82.2711 241.611 82.2711 242.085 82.3392V82.8836H241.949C241.001 82.8836 240.053 82.8155 239.24 82.8155H239.105L234.228 82.8836H234.092V82.3392C234.973 82.2711 235.515 82.135 235.853 81.8628C236.124 81.5906 236.328 81.0463 236.328 80.2297C236.395 78.5965 236.395 76.487 236.395 73.765C236.395 70.4306 236.395 68.4572 236.328 67.7767C236.328 67.7767 236.328 67.7087 236.328 67.6406C236.328 67.5726 236.328 67.5045 236.328 67.5045C236.328 67.5045 236.328 67.4365 236.328 67.3684C236.328 67.3004 236.328 67.2323 236.328 67.2323C236.328 67.2323 236.328 67.1643 236.328 67.0962C236.328 67.0282 236.328 67.0282 236.26 66.9601L236.192 66.8921C236.192 66.8921 236.124 66.824 236.057 66.824C235.989 66.824 235.989 66.756 235.921 66.756C235.853 66.756 235.853 66.756 235.786 66.756C235.447 66.756 234.973 66.756 234.296 66.8921L234.16 66.3477C236.057 65.8033 238.021 65.1228 240.053 64.3062L240.188 64.3743V64.5104C240.188 64.5784 240.188 64.7145 240.188 64.8506C240.188 64.9867 240.188 65.1228 240.188 65.327C240.188 65.5311 240.188 65.7352 240.188 65.9394C240.188 66.2116 240.188 66.4157 240.188 66.6879C240.188 66.9601 240.188 67.2323 240.188 67.5726C240.188 67.9128 240.188 68.185 240.188 68.5252C241.069 67.3004 242.288 66.2796 243.778 65.463C245.268 64.6465 246.759 64.2382 248.181 64.2382C249.332 64.2382 250.348 64.3743 251.094 64.6465C251.906 64.9187 252.584 65.4631 253.193 66.2116C253.667 66.756 254.006 67.5726 254.142 68.5252C254.345 69.4779 254.413 70.7028 254.413 72.2679C254.413 72.9484 254.413 74.2414 254.413 76.2828C254.074 78.2562 254.142 79.6172 254.142 80.2977Z" fill="white"/>
<path d="M265.453 80.2977C265.453 80.7741 265.521 81.1143 265.589 81.3865C265.656 81.6587 265.792 81.8628 265.995 81.9989C266.198 82.135 266.401 82.2031 266.605 82.2711C266.808 82.3392 267.147 82.3392 267.688 82.4072V82.9516H267.485C266.537 82.9516 264.844 82.8836 262.541 82.8836H262.405L259.696 82.9516H259.56V82.3392C260.441 82.2711 261.05 82.135 261.321 81.8628C261.66 81.5906 261.796 81.0463 261.796 80.2297C261.863 78.8006 261.863 76.6231 261.863 73.765C261.863 70.4306 261.863 68.4572 261.796 67.7767C261.796 67.5726 261.796 67.5045 261.796 67.4365C261.796 67.3684 261.796 67.3004 261.728 67.1643C261.728 67.0282 261.66 66.9601 261.66 66.8921C261.592 66.824 261.592 66.824 261.457 66.756C261.389 66.6879 261.254 66.6879 261.186 66.6879C260.847 66.6879 260.305 66.6879 259.628 66.824L259.493 66.2796C261.321 65.7352 263.286 64.9867 265.385 64.2382L265.521 64.3062C265.453 67.7767 265.453 70.907 265.453 73.697V80.2977ZM263.421 61.3801C262.879 61.3801 262.337 61.176 261.931 60.7677C261.525 60.3594 261.321 59.815 261.321 59.2706C261.321 58.7262 261.525 58.3179 261.931 57.9096C262.337 57.5013 262.812 57.2972 263.421 57.2972C264.031 57.2972 264.505 57.5013 264.911 57.9096C265.318 58.3179 265.521 58.7262 265.521 59.2706C265.521 59.883 265.318 60.3594 264.911 60.7677C264.505 61.176 264.031 61.3801 263.421 61.3801Z" fill="white"/>
<path d="M5.62564 31.5747L7.5222 36.2701L9.41875 31.5747H10.367V37.3589H9.62195V35.1132L9.68968 32.6635L7.79313 37.3589H7.25126L5.35471 32.7315L5.42244 35.1132V37.3589H4.67737V31.5747H5.62564Z" fill="black"/>
<path d="M17.0049 31.5747V35.5215C17.0049 36.0659 16.8017 36.5423 16.4631 36.8825C16.1244 37.2228 15.6503 37.4269 15.1084 37.4949H14.9052C14.2956 37.4949 13.7537 37.3589 13.415 36.9506C13.0086 36.6103 12.8732 36.134 12.8732 35.5215V31.5747H13.6182V35.4535C13.6182 35.8618 13.7537 36.202 13.9569 36.4062C14.1601 36.6103 14.4988 36.7464 14.9052 36.7464C15.3116 36.7464 15.6503 36.6103 15.9212 36.4062C16.1244 36.202 16.2599 35.8618 16.2599 35.4535V31.5747H17.0049Z" fill="black"/>
<path d="M21.1367 34.773C20.4594 34.5688 19.9852 34.3647 19.7143 34.0925C19.4434 33.8203 19.2402 33.4801 19.2402 33.0718C19.2402 32.5954 19.4434 32.2552 19.782 31.9149C20.1207 31.6427 20.5948 31.4386 21.2044 31.4386C21.6108 31.4386 21.9495 31.5066 22.2882 31.6427C22.6269 31.7788 22.8301 31.983 23.0333 32.2552C23.2365 32.5274 23.3042 32.7996 23.3042 33.1398H22.5591C22.5591 32.7996 22.4237 32.5274 22.2205 32.3232C22.0173 32.1191 21.6786 32.051 21.2722 32.051C20.8658 32.051 20.5948 32.1191 20.3916 32.3232C20.1884 32.4593 20.053 32.7315 20.053 33.0037C20.053 33.2079 20.1207 33.412 20.3239 33.6162C20.5271 33.7523 20.8658 33.9564 21.3399 34.0925C21.8141 34.2286 22.2205 34.3647 22.4914 34.5688C22.7623 34.7049 22.9655 34.9091 23.101 35.1132C23.2365 35.3174 23.3042 35.5896 23.3042 35.8618C23.3042 36.3381 23.101 36.6784 22.7623 36.9506C22.4237 37.2228 21.8818 37.3589 21.3399 37.3589C20.9335 37.3589 20.5948 37.2908 20.2562 37.1547C19.9175 37.0186 19.6466 36.8145 19.4434 36.5423C19.2402 36.2701 19.1724 35.9979 19.1724 35.6576H19.9175C19.9175 35.9979 20.053 36.2701 20.3239 36.4742C20.5948 36.6784 20.9335 36.7464 21.3399 36.7464C21.7463 36.7464 22.0173 36.6784 22.2882 36.4742C22.4914 36.3381 22.6269 36.0659 22.6269 35.7937C22.6269 35.5215 22.5591 35.3174 22.3559 35.1132C22.0173 35.1132 21.6786 34.9091 21.1367 34.773Z" fill="black"/>
<path d="M28.7229 34.7049H26.2168V36.7464H29.1293V37.3589H25.4717V31.5747H29.0616V32.1871H26.2168V34.0245H28.7229V34.7049Z" fill="black"/>
<path d="M35.3608 31.5747V35.5215C35.3608 36.0659 35.1576 36.5423 34.819 36.8825C34.4803 37.2228 34.0062 37.4269 33.4643 37.4949H33.2611C32.6515 37.4949 32.1096 37.3589 31.7709 36.9506C31.4323 36.5423 31.2291 36.134 31.2291 35.5215V31.5747H31.9741V35.4535C31.9741 35.8618 32.1096 36.202 32.3128 36.4062C32.516 36.6103 32.8547 36.7464 33.2611 36.7464C33.6675 36.7464 34.0062 36.6103 34.2771 36.4062C34.4803 36.202 34.6158 35.8618 34.6158 35.4535V31.5747H35.3608Z" fill="black"/>
<path d="M38.8153 31.5747L40.7119 36.2701L42.6084 31.5747H43.5567V37.3589H42.8116V35.1132L42.8794 32.6635L40.9828 37.3589H40.3732L38.4767 32.7315L38.5444 35.1132V37.3589H37.7993V31.5747H38.8153Z" fill="black"/>
<path d="M53.7845 34.6369C53.7845 35.1813 53.7168 35.7257 53.5136 36.134C53.3104 36.5423 53.0394 36.8825 52.7008 37.0867C52.3621 37.2908 51.9557 37.4269 51.4815 37.4269C51.0074 37.4269 50.601 37.2908 50.2623 37.0867C49.9237 36.8825 49.6527 36.5423 49.4495 36.134C49.2463 35.7257 49.1786 35.2493 49.1786 34.7049V34.2967C49.1786 33.7523 49.2463 33.2759 49.4495 32.7996C49.6527 32.3913 49.9237 32.051 50.2623 31.8469C50.601 31.6427 51.0074 31.5066 51.4815 31.5066C51.9557 31.5066 52.3621 31.6427 52.7008 31.8469C53.0394 32.051 53.3104 32.3913 53.5136 32.7996C53.7168 33.2079 53.7845 33.6842 53.7845 34.2967V34.6369ZM53.0394 34.2967C53.0394 33.6162 52.904 33.0718 52.633 32.7315C52.3621 32.3913 51.9557 32.1871 51.4815 32.1871C51.0074 32.1871 50.601 32.3913 50.3301 32.7315C50.0591 33.0718 49.9237 33.6162 49.9237 34.2286V34.6369C49.9237 35.3174 50.0591 35.7937 50.3301 36.202C50.601 36.6103 51.0074 36.7464 51.4815 36.7464C51.9557 36.7464 52.3621 36.5423 52.633 36.202C52.904 35.8618 53.0394 35.3174 53.0394 34.6369V34.2967Z" fill="black"/>
<path d="M59.3387 34.841H56.9003V37.3589H56.1552V31.5747H59.6774V32.1871H56.9003V34.1606H59.3387V34.841Z" fill="black"/>
<path d="M68.8892 32.1871H67.0604V37.3589H66.3153V32.1871H64.4865V31.5747H68.957V32.1871H68.8892Z" fill="black"/>
<path d="M75.4594 37.3589H74.7143V34.7049H71.8018V37.3589H71.0567V31.5747H71.8018V34.0245H74.7143V31.5747H75.4594V37.3589Z" fill="black"/>
<path d="M81.2845 34.7049H78.7783V36.7464H81.6909V37.3589H78.0333V31.5747H81.6232V32.1871H78.7783V34.0245H81.2845V34.7049Z" fill="black"/>
<path d="M87.1096 37.3589V31.5747H89.0062C89.6158 31.5747 90.0899 31.7108 90.4286 31.983C90.7673 32.2552 90.9027 32.5954 90.9027 33.1398C90.9027 33.412 90.835 33.6162 90.6995 33.8884C90.5641 34.0925 90.3609 34.2286 90.0899 34.3647C90.4286 34.4327 90.6318 34.6369 90.835 34.841C91.0382 35.1132 91.1059 35.3854 91.1059 35.7257C91.1059 36.2701 90.9705 36.6784 90.6318 36.9506C90.2931 37.2228 89.819 37.4269 89.2094 37.4269H87.1096V37.3589ZM87.8547 34.0245H89.0062C89.3448 34.0245 89.6158 33.9564 89.819 33.7523C90.0222 33.6162 90.0899 33.344 90.0899 33.0718C90.0899 32.7315 90.0222 32.5274 89.819 32.3913C89.6158 32.2552 89.3448 32.1871 89.0062 32.1871H87.8547V34.0245ZM87.8547 34.6369V36.6784H89.0739C89.4126 36.6784 89.6835 36.6103 89.8867 36.4062C90.0899 36.202 90.2254 35.9979 90.2254 35.6576C90.2254 34.9771 89.819 34.6369 89.0739 34.6369H87.8547Z" fill="black"/>
<path d="M94.154 36.7464H96.8633V37.3589H93.4089V31.5747H94.154V36.7464Z" fill="black"/>
<path d="M102.214 35.8618H99.8436L99.3018 37.3589H98.489L100.656 31.5747H101.334L103.501 37.3589H102.756L102.214 35.8618ZM100.047 35.2493H102.011L101.063 32.5274L100.047 35.2493Z" fill="black"/>
<path d="M109.801 35.5215C109.733 36.134 109.53 36.6103 109.123 36.9506C108.717 37.2908 108.243 37.4269 107.633 37.4269C106.956 37.4269 106.414 37.1547 106.007 36.6784C105.601 36.202 105.398 35.5215 105.398 34.7049V34.1606C105.398 33.6162 105.466 33.1398 105.669 32.7315C105.872 32.3232 106.143 31.983 106.482 31.7788C106.82 31.5747 107.227 31.4386 107.701 31.4386C108.31 31.4386 108.785 31.6427 109.191 31.983C109.53 32.3232 109.801 32.7996 109.801 33.412H109.055C108.988 32.9357 108.852 32.5954 108.649 32.3913C108.446 32.1871 108.107 32.051 107.701 32.051C107.227 32.051 106.82 32.2552 106.549 32.5954C106.278 32.9357 106.143 33.4801 106.143 34.1606V34.7049C106.143 35.3174 106.278 35.8618 106.549 36.202C106.82 36.5423 107.159 36.7464 107.633 36.7464C108.039 36.7464 108.378 36.6784 108.581 36.4742C108.785 36.2701 108.988 35.9298 109.055 35.4535H109.801V35.5215Z" fill="black"/>
<path d="M113.526 34.7049L112.849 35.4535V37.4269H112.103V31.6427H112.849V34.5008L115.422 31.6427H116.303L114.068 34.1606L116.506 37.3589H115.626L113.526 34.7049Z" fill="black"/>
<path d="M124.77 34.841H122.331V37.3589H121.586V31.5747H125.108V32.1871H122.331V34.1606H124.77V34.841Z" fill="black"/>
<path d="M129.443 35.0452H128.089V37.3589H127.344V31.5747H129.24C129.918 31.5747 130.392 31.7108 130.73 32.051C131.069 32.3232 131.272 32.7996 131.272 33.344C131.272 33.6842 131.204 34.0245 131.001 34.2967C130.798 34.5688 130.527 34.773 130.188 34.9091L131.543 37.3589V37.4269H130.663L129.443 35.0452ZM128.089 34.4327H129.24C129.647 34.4327 129.918 34.3647 130.121 34.1606C130.324 33.9564 130.459 33.6842 130.459 33.344C130.459 33.0037 130.324 32.7315 130.121 32.5274C129.918 32.3232 129.579 32.2552 129.172 32.2552H128.021V34.4327H128.089Z" fill="black"/>
<path d="M134.388 37.3589H133.643V31.5747H134.388V37.3589Z" fill="black"/>
<path d="M140.145 35.8618H137.775L137.233 37.3589H136.42L138.587 31.5747H139.265L141.432 37.3589H140.687L140.145 35.8618ZM137.978 35.2493H139.942L138.994 32.5274L137.978 35.2493Z" fill="black"/>
<path d="M145.632 35.0452H144.277V37.3589H143.532V31.5747H145.429C146.106 31.5747 146.58 31.7108 146.919 32.051C147.257 32.3232 147.461 32.7996 147.461 33.344C147.461 33.6842 147.393 34.0245 147.19 34.2967C146.986 34.5688 146.716 34.773 146.377 34.9091L147.732 37.3589V37.4269H146.919L145.632 35.0452ZM144.277 34.4327H145.429C145.835 34.4327 146.106 34.3647 146.309 34.1606C146.512 33.9564 146.648 33.6842 146.648 33.344C146.648 33.0037 146.512 32.7315 146.309 32.5274C146.106 32.3232 145.767 32.2552 145.361 32.2552H144.209V34.4327H144.277Z" fill="black"/>
<path d="M151.457 34.773C150.78 34.5688 150.305 34.3647 150.035 34.0925C149.764 33.8203 149.56 33.4801 149.56 33.0718C149.56 32.5954 149.764 32.2552 150.102 31.9149C150.441 31.6427 150.915 31.4386 151.525 31.4386C151.931 31.4386 152.27 31.5066 152.608 31.6427C152.947 31.7788 153.15 31.983 153.354 32.2552C153.557 32.5274 153.624 32.7996 153.624 33.1398H152.879C152.879 32.7996 152.744 32.5274 152.541 32.3232C152.338 32.1191 151.999 32.051 151.592 32.051C151.186 32.051 150.915 32.1191 150.712 32.3232C150.509 32.4593 150.373 32.7315 150.373 33.0037C150.373 33.2079 150.441 33.412 150.644 33.6162C150.847 33.7523 151.186 33.9564 151.66 34.0925C152.134 34.2286 152.541 34.3647 152.812 34.5688C153.083 34.7049 153.286 34.9091 153.421 35.1132C153.557 35.3174 153.624 35.5896 153.624 35.8618C153.624 36.3381 153.421 36.6784 153.083 36.9506C152.744 37.2228 152.202 37.3589 151.66 37.3589C151.254 37.3589 150.915 37.2908 150.576 37.1547C150.238 37.0186 149.967 36.8145 149.764 36.5423C149.56 36.2701 149.493 35.9979 149.493 35.6576H150.238C150.238 35.9979 150.373 36.2701 150.644 36.4742C150.915 36.6784 151.254 36.7464 151.66 36.7464C152.067 36.7464 152.337 36.6784 152.608 36.4742C152.812 36.3381 152.947 36.0659 152.947 35.7937C152.947 35.5215 152.879 35.3174 152.676 35.1132C152.338 35.1132 151.931 34.9091 151.457 34.773Z" fill="black"/>
<path d="M162.227 35.8618H159.788L159.246 37.3589H158.434L160.601 31.5747H161.278L163.446 37.3589H162.701L162.227 35.8618ZM159.991 35.2493H161.956L161.007 32.5274L159.991 35.2493Z" fill="black"/>
<path d="M169.948 37.3589H169.203L166.291 32.9357V37.3589H165.546V31.5747H166.291L169.203 36.0659V31.5747H169.948V37.3589Z" fill="black"/>
<path d="M172.522 37.3589V31.5747H174.148C174.622 31.5747 175.096 31.7108 175.503 31.9149C175.909 32.1191 176.18 32.4593 176.383 32.8676C176.586 33.2759 176.722 33.7523 176.722 34.2967V34.6369C176.722 35.1813 176.586 35.6576 176.383 36.0659C176.18 36.4742 175.909 36.8145 175.503 37.0186C175.096 37.2228 174.69 37.3589 174.148 37.3589H172.522ZM173.335 32.1871V36.7464H174.148C174.757 36.7464 175.164 36.5423 175.503 36.202C175.841 35.8618 175.977 35.3174 175.977 34.6369V34.2967C175.977 33.6162 175.841 33.1398 175.503 32.7996C175.164 32.4593 174.757 32.2552 174.216 32.2552H173.335V32.1871Z" fill="black"/>
<path d="M184.24 36.3381L185.866 31.5747H186.679L184.579 37.3589H183.902L181.802 31.5747H182.615L184.24 36.3381Z" fill="black"/>
<path d="M191.623 35.8618H189.253L188.711 37.3589H187.898L190.065 31.5747H190.743L192.91 37.3589H192.165L191.623 35.8618ZM189.388 35.2493H191.352L190.404 32.5274L189.388 35.2493Z" fill="black"/>
<path d="M195.687 36.7464H198.397V37.3589H194.942V31.5747H195.687V36.7464Z" fill="black"/>
<path d="M201.309 36.7464H204.019V37.3589H200.564V31.5747H201.309V36.7464Z" fill="black"/>
<path d="M209.369 34.7049H206.863V36.7464H209.776V37.3589H206.118V31.5747H209.708V32.1871H206.863V34.0245H209.369V34.7049Z" fill="black"/>
<path d="M216.007 32.1871H214.179V37.3589H213.434V32.1871H211.605V31.5747H216.075V32.1871H216.007Z" fill="black"/>
<path d="M222.103 32.1871H220.275V37.3589H219.53V32.1871H217.701V31.5747H222.171V32.1871H222.103Z" fill="black"/>
<path d="M227.116 35.8618H224.745L224.203 37.3589H223.39L225.558 31.5747H226.235L228.403 37.3589H227.658L227.116 35.8618ZM224.948 35.2493H226.913L225.964 32.5274L224.948 35.2493Z" fill="black"/>
</g>
<defs>
<filter id="filter0_d_5_307" x="0" y="0" width="338" height="136" filterUnits="userSpaceOnUse" color-interpolation-filters="sRGB">
<feFlood flood-opacity="0" result="BackgroundImageFix"/>
<feColorMatrix in="SourceAlpha" type="matrix" values="0 0 0 0 0 0 0 0 0 0 0 0 0 0 0 0 0 0 127 0" result="hardAlpha"/>
<feOffset dy="4"/>
<feGaussianBlur stdDeviation="2"/>
<feComposite in2="hardAlpha" operator="out"/>
<feColorMatrix type="matrix" values="0 0 0 0 0 0 0 0 0 0 0 0 0 0 0 0 0 0 0.25 0"/>
<feBlend mode="normal" in2="BackgroundImageFix" result="effect1_dropShadow_5_307"/>
<feBlend mode="normal" in="SourceGraphic" in2="effect1_dropShadow_5_307" result="shape"/>
</filter>
<clipPath id="clip0_5_307">
<rect width="330" height="128" fill="white" transform="translate(4)"/>
</clipPath>
</defs>
</svg>
